<svg id="eEUPFr6kZqD1" xmlns="http://www.w3.org/2000/svg" xmlns:xlink="http://www.w3.org/1999/xlink" viewBox="0 0 800 600" shape-rendering="geometricPrecision" text-rendering="geometricPrecision"><g id="eEUPFr6kZqD2"><ellipse id="eEUPFr6kZqD3" rx="181.912502" ry="189.521010" transform="matrix(0.52400632830829 0 0 0.38737451377986 479.28968430999885 465.89304618000028)" fill="rgb(210,219,237)" stroke="none" stroke-width="0"/><ellipse id="eEUPFr6kZqD4" rx="181.912502" ry="189.521010" transform="matrix(0.80467179990271 0 0 0.71337489352717 605.79044241000008 362.42784533000014)" fill="rgb(210,219,237)" stroke="none" stroke-width="0"/><ellipse id="eEUPFr6kZqD5" rx="181.912502" ry="189.521010" transform="matrix(1.82442566378473 0 0 1.06141825108622 373.67716000000001 280.55485290000007)" fill="rgb(210,219,237)" stroke="none" stroke-width="0"/><ellipse id="eEUPFr6kZqD6" rx="181.912502" ry="189.521010" transform="matrix(0.63328470167057 0 0 0.53972190250808 135.23107900000008 290.18879700000014)" fill="rgb(210,219,237)" stroke="none" stroke-width="0"/><ellipse id="eEUPFr6kZqD7" rx="181.912502" ry="189.521010" transform="matrix(0.63328470167057 0 0 0.53972190250808 664.36704600000019 280.55485290000018)" fill="rgb(210,219,237)" stroke="none" stroke-width="0"/><ellipse id="eEUPFr6kZqD8" rx="181.912502" ry="189.521010" transform="matrix(0.80467179990271 0 0 0.71337489352717 238.15186735000017 377.22800754000014)" fill="rgb(210,219,237)" stroke="none" stroke-width="0"/><ellipse id="eEUPFr6kZqD9" rx="181.912502" ry="189.521010" transform="matrix(0.50150291350265 0 0 0.44111160354581 293.30207800000011 137.47613700000016)" fill="rgb(210,219,237)" stroke="none" stroke-width="0"/><ellipse id="eEUPFr6kZqD10" rx="181.912502" ry="189.521010" transform="matrix(0.63328470167057 0 0 0.53972190250808 459.41058200000015 124.93967492000016)" fill="rgb(210,219,237)" stroke="none" stroke-width="0"/><ellipse id="eEUPFr6kZqD11" rx="181.912502" ry="189.521010" transform="matrix(0.62225527126204 0.11767706130159 -0.10029120747701 0.53032198309117 167.38111200000009 162.92824800000014)" fill="rgb(210,219,237)" stroke="none" stroke-width="0"/><ellipse id="eEUPFr6kZqD12" rx="181.912502" ry="189.521010" transform="matrix(0.40167972000802 0 0 0.35028245641805 598.72551156000031 154.69016870000027)" fill="rgb(210,219,237)" stroke="none" stroke-width="0"/><ellipse id="eEUPFr6kZqD13" rx="181.912502" ry="189.521010" transform="matrix(0.33768909281412 0 0 0.26672213931600 344.20817743999891 461.87808864000050)" fill="rgb(210,219,237)" stroke="none" stroke-width="0"/></g></svg>